<svg height="320" width="320" shapeRendering="crispEdges" viewBox="0 0 29 29" style="width: 320px; height: 320px;" xmlns="http://www.w3.org/2000/svg"><path fill="#fff" d="M0,0 h29v29H0z"></path><path fill="#000" d="M0 0h7v1H0zM8 0h4v1H8zM13 0h3v1H13zM18 0h2v1H18zM22,0 h7v1H22zM0 1h1v1H0zM6 1h1v1H6zM8 1h1v1H8zM11 1h1v1H11zM15 1h1v1H15zM18 1h1v1H18zM22 1h1v1H22zM28,1 h1v1H28zM0 2h1v1H0zM2 2h3v1H2zM6 2h1v1H6zM9 2h1v1H9zM13 2h1v1H13zM17 2h1v1H17zM19 2h1v1H19zM22 2h1v1H22zM24 2h3v1H24zM28,2 h1v1H28zM0 3h1v1H0zM2 3h3v1H2zM6 3h1v1H6zM11 3h2v1H11zM15 3h3v1H15zM20 3h1v1H20zM22 3h1v1H22zM24 3h3v1H24zM28,3 h1v1H28zM0 4h1v1H0zM2 4h3v1H2zM6 4h1v1H6zM8 4h1v1H8zM11 4h2v1H11zM15 4h3v1H15zM19 4h1v1H19zM22 4h1v1H22zM24 4h3v1H24zM28,4 h1v1H28zM0 5h1v1H0zM6 5h1v1H6zM8 5h3v1H8zM12 5h3v1H12zM16 5h2v1H16zM22 5h1v1H22zM28,5 h1v1H28zM0 6h7v1H0zM8 6h1v1H8zM10 6h1v1H10zM12 6h1v1H12zM14 6h1v1H14zM16 6h1v1H16zM18 6h1v1H18zM20 6h1v1H20zM22,6 h7v1H22zM8 7h2v1H8zM13 7h1v1H13zM20 7h1v1H20zM0 8h3v1H0zM5 8h2v1H5zM8 8h2v1H8zM11 8h3v1H11zM15 8h2v1H15zM18 8h7v1H18zM27,8 h2v1H27zM0 9h4v1H0zM7 9h2v1H7zM12 9h1v1H12zM16 9h1v1H16zM18 9h1v1H18zM20 9h4v1H20zM27,9 h2v1H27zM1 10h1v1H1zM3 10h1v1H3zM5 10h3v1H5zM9 10h2v1H9zM12 10h3v1H12zM16 10h2v1H16zM19 10h1v1H19zM22 10h1v1H22zM24 10h3v1H24zM28,10 h1v1H28zM0 11h3v1H0zM5 11h1v1H5zM10 11h3v1H10zM14 11h3v1H14zM18 11h4v1H18zM24 11h2v1H24zM0 12h1v1H0zM3 12h4v1H3zM9 12h2v1H9zM13 12h2v1H13zM16 12h1v1H16zM18 12h1v1H18zM20 12h1v1H20zM22 12h1v1H22zM28,12 h1v1H28zM1 13h1v1H1zM3 13h1v1H3zM5 13h1v1H5zM7 13h4v1H7zM13 13h2v1H13zM18 13h2v1H18zM21 13h3v1H21zM27,13 h2v1H27zM1 14h1v1H1zM3 14h1v1H3zM6 14h1v1H6zM8 14h2v1H8zM11 14h1v1H11zM15 14h2v1H15zM18 14h2v1H18zM21 14h3v1H21zM28,14 h1v1H28zM0 15h4v1H0zM5 15h1v1H5zM7 15h3v1H7zM13 15h1v1H13zM15 15h1v1H15zM20 15h1v1H20zM22 15h3v1H22zM1 16h1v1H1zM6 16h3v1H6zM10 16h4v1H10zM15 16h1v1H15zM18 16h1v1H18zM20 16h1v1H20zM22 16h2v1H22zM28,16 h1v1H28zM2 17h1v1H2zM5 17h1v1H5zM10 17h1v1H10zM12 17h1v1H12zM15 17h1v1H15zM18 17h3v1H18zM22 17h2v1H22zM26,17 h3v1H26zM0 18h2v1H0zM4 18h4v1H4zM9 18h1v1H9zM12 18h5v1H12zM19 18h1v1H19zM24 18h2v1H24zM28,18 h1v1H28zM9 19h4v1H9zM14 19h1v1H14zM19 19h2v1H19zM24 19h1v1H24zM0 20h4v1H0zM5 20h3v1H5zM13 20h3v1H13zM18 20h1v1H18zM20 20h6v1H20zM27 20h1v1H27zM8 21h3v1H8zM13 21h3v1H13zM17 21h1v1H17zM20 21h1v1H20zM24 21h3v1H24zM28,21 h1v1H28zM0 22h7v1H0zM9 22h1v1H9zM11 22h1v1H11zM15 22h3v1H15zM20 22h1v1H20zM22 22h1v1H22zM24 22h1v1H24zM28,22 h1v1H28zM0 23h1v1H0zM6 23h1v1H6zM8 23h3v1H8zM13 23h1v1H13zM15 23h1v1H15zM18 23h3v1H18zM24 23h1v1H24zM27 23h1v1H27zM0 24h1v1H0zM2 24h3v1H2zM6 24h1v1H6zM10 24h4v1H10zM15 24h2v1H15zM19 24h7v1H19zM27,24 h2v1H27zM0 25h1v1H0zM2 25h3v1H2zM6 25h1v1H6zM9 25h2v1H9zM12 25h1v1H12zM15 25h3v1H15zM19 25h2v1H19zM24 25h3v1H24zM28,25 h1v1H28zM0 26h1v1H0zM2 26h3v1H2zM6 26h1v1H6zM8 26h3v1H8zM12 26h4v1H12zM17 26h1v1H17zM19 26h3v1H19zM24 26h1v1H24zM27,26 h2v1H27zM0 27h1v1H0zM6 27h1v1H6zM8 27h2v1H8zM11 27h2v1H11zM14 27h1v1H14zM20 27h3v1H20zM25 27h1v1H25zM0 28h7v1H0zM8 28h1v1H8zM10 28h1v1H10zM13 28h4v1H13zM20 28h2v1H20zM24 28h1v1H24zM28,28 h1v1H28z"></path></svg>