<svg width="350" height="350" version="1.1" xmlns="http://www.w3.org/2000/svg" xmlns:xlink="http://www.w3.org/1999/xlink"><svg><rect x="0" y="0" width="350" height="350" style="fill:#fff;shape-rendering:crispEdges;"></rect><path x="0" y="0" style="fill:#000;shape-rendering:crispEdges;" d="M0,0 V9.46 H9.46 V0 H0 Z M9.46,0 V9.46 H18.92 V0 H9.46 Z M18.92,0 V9.46 H28.38 V0 H18.92 Z M28.38,0 V9.46 H37.84 V0 H28.38 Z M37.84,0 V9.46 H47.30 V0 H37.84 Z M47.30,0 V9.46 H56.76 V0 H47.30 Z M56.76,0 V9.46 H66.22 V0 H56.76 Z M94.59,0 V9.46 H104.05 V0 H94.59 Z M104.05,0 V9.46 H113.51 V0 H104.05 Z M132.43,0 V9.46 H141.89 V0 H132.43 Z M141.89,0 V9.46 H151.35 V0 H141.89 Z M179.73,0 V9.46 H189.19 V0 H179.73 Z M217.57,0 V9.46 H227.03 V0 H217.57 Z M245.95,0 V9.46 H255.41 V0 H245.95 Z M264.86,0 V9.46 H274.32 V0 H264.86 Z M283.78,0 V9.46 H293.24 V0 H283.78 Z M293.24,0 V9.46 H302.70 V0 H293.24 Z M302.70,0 V9.46 H312.16 V0 H302.70 Z M312.16,0 V9.46 H321.62 V0 H312.16 Z M321.62,0 V9.46 H331.08 V0 H321.62 Z M331.08,0 V9.46 H340.54 V0 H331.08 Z M340.54,0 V9.46 H350 V0 H340.54 Z M0,9.46 V18.92 H9.46 V9.46 H0 Z M56.76,9.46 V18.92 H66.22 V9.46 H56.76 Z M75.68,9.46 V18.92 H85.14 V9.46 H75.68 Z M113.51,9.46 V18.92 H122.97 V9.46 H113.51 Z M122.97,9.46 V18.92 H132.43 V9.46 H122.97 Z M151.35,9.46 V18.92 H160.81 V9.46 H151.35 Z M179.73,9.46 V18.92 H189.19 V9.46 H179.73 Z M217.57,9.46 V18.92 H227.03 V9.46 H217.57 Z M236.49,9.46 V18.92 H245.95 V9.46 H236.49 Z M255.41,9.46 V18.92 H264.86 V9.46 H255.41 Z M283.78,9.46 V18.92 H293.24 V9.46 H283.78 Z M340.54,9.46 V18.92 H350 V9.46 H340.54 Z M0,18.92 V28.38 H9.46 V18.92 H0 Z M18.92,18.92 V28.38 H28.38 V18.92 H18.92 Z M28.38,18.92 V28.38 H37.84 V18.92 H28.38 Z M37.84,18.92 V28.38 H47.30 V18.92 H37.84 Z M56.76,18.92 V28.38 H66.22 V18.92 H56.76 Z M75.68,18.92 V28.38 H85.14 V18.92 H75.68 Z M104.05,18.92 V28.38 H113.51 V18.92 H104.05 Z M113.51,18.92 V28.38 H122.97 V18.92 H113.51 Z M170.27,18.92 V28.38 H179.73 V18.92 H170.27 Z M189.19,18.92 V28.38 H198.65 V18.92 H189.19 Z M208.11,18.92 V28.38 H217.57 V18.92 H208.11 Z M236.49,18.92 V28.38 H245.95 V18.92 H236.49 Z M255.41,18.92 V28.38 H264.86 V18.92 H255.41 Z M264.86,18.92 V28.38 H274.32 V18.92 H264.86 Z M283.78,18.92 V28.38 H293.24 V18.92 H283.78 Z M302.70,18.92 V28.38 H312.16 V18.92 H302.70 Z M312.16,18.92 V28.38 H321.62 V18.92 H312.16 Z M321.62,18.92 V28.38 H331.08 V18.92 H321.62 Z M340.54,18.92 V28.38 H350 V18.92 H340.54 Z M0,28.38 V37.84 H9.46 V28.38 H0 Z M18.92,28.38 V37.84 H28.38 V28.38 H18.92 Z M28.38,28.38 V37.84 H37.84 V28.38 H28.38 Z M37.84,28.38 V37.84 H47.30 V28.38 H37.84 Z M56.76,28.38 V37.84 H66.22 V28.38 H56.76 Z M94.59,28.38 V37.84 H104.05 V28.38 H94.59 Z M113.51,28.38 V37.84 H122.97 V28.38 H113.51 Z M122.97,28.38 V37.84 H132.43 V28.38 H122.97 Z M132.43,28.38 V37.84 H141.89 V28.38 H132.43 Z M170.27,28.38 V37.84 H179.73 V28.38 H170.27 Z M179.73,28.38 V37.84 H189.19 V28.38 H179.73 Z M208.11,28.38 V37.84 H217.57 V28.38 H208.11 Z M217.57,28.38 V37.84 H227.03 V28.38 H217.57 Z M227.03,28.38 V37.84 H236.49 V28.38 H227.03 Z M236.49,28.38 V37.84 H245.95 V28.38 H236.49 Z M245.95,28.38 V37.84 H255.41 V28.38 H245.95 Z M264.86,28.38 V37.84 H274.32 V28.38 H264.86 Z M283.78,28.38 V37.84 H293.24 V28.38 H283.78 Z M302.70,28.38 V37.84 H312.16 V28.38 H302.70 Z M312.16,28.38 V37.84 H321.62 V28.38 H312.16 Z M321.62,28.38 V37.84 H331.08 V28.38 H321.62 Z M340.54,28.38 V37.84 H350 V28.38 H340.54 Z M0,37.84 V47.30 H9.46 V37.84 H0 Z M18.92,37.84 V47.30 H28.38 V37.84 H18.92 Z M28.38,37.84 V47.30 H37.84 V37.84 H28.38 Z M37.84,37.84 V47.30 H47.30 V37.84 H37.84 Z M56.76,37.84 V47.30 H66.22 V37.84 H56.76 Z M75.68,37.84 V47.30 H85.14 V37.84 H75.68 Z M85.14,37.84 V47.30 H94.59 V37.84 H85.14 Z M94.59,37.84 V47.30 H104.05 V37.84 H94.59 Z M104.05,37.84 V47.30 H113.51 V37.84 H104.05 Z M122.97,37.84 V47.30 H132.43 V37.84 H122.97 Z M170.27,37.84 V47.30 H179.73 V37.84 H170.27 Z M179.73,37.84 V47.30 H189.19 V37.84 H179.73 Z M208.11,37.84 V47.30 H217.57 V37.84 H208.11 Z M245.95,37.84 V47.30 H255.41 V37.84 H245.95 Z M255.41,37.84 V47.30 H264.86 V37.84 H255.41 Z M283.78,37.84 V47.30 H293.24 V37.84 H283.78 Z M302.70,37.84 V47.30 H312.16 V37.84 H302.70 Z M312.16,37.84 V47.30 H321.62 V37.84 H312.16 Z M321.62,37.84 V47.30 H331.08 V37.84 H321.62 Z M340.54,37.84 V47.30 H350 V37.84 H340.54 Z M0,47.30 V56.76 H9.46 V47.30 H0 Z M56.76,47.30 V56.76 H66.22 V47.30 H56.76 Z M85.14,47.30 V56.76 H94.59 V47.30 H85.14 Z M104.05,47.30 V56.76 H113.51 V47.30 H104.05 Z M122.97,47.30 V56.76 H132.43 V47.30 H122.97 Z M141.89,47.30 V56.76 H151.35 V47.30 H141.89 Z M151.35,47.30 V56.76 H160.81 V47.30 H151.35 Z M160.81,47.30 V56.76 H170.27 V47.30 H160.81 Z M217.57,47.30 V56.76 H227.03 V47.30 H217.57 Z M227.03,47.30 V56.76 H236.49 V47.30 H227.03 Z M255.41,47.30 V56.76 H264.86 V47.30 H255.41 Z M283.78,47.30 V56.76 H293.24 V47.30 H283.78 Z M340.54,47.30 V56.76 H350 V47.30 H340.54 Z M0,56.76 V66.22 H9.46 V56.76 H0 Z M9.46,56.76 V66.22 H18.92 V56.76 H9.46 Z M18.92,56.76 V66.22 H28.38 V56.76 H18.92 Z M28.38,56.76 V66.22 H37.84 V56.76 H28.38 Z M37.84,56.76 V66.22 H47.30 V56.76 H37.84 Z M47.30,56.76 V66.22 H56.76 V56.76 H47.30 Z M56.76,56.76 V66.22 H66.22 V56.76 H56.76 Z M75.68,56.76 V66.22 H85.14 V56.76 H75.68 Z M94.59,56.76 V66.22 H104.05 V56.76 H94.59 Z M113.51,56.76 V66.22 H122.97 V56.76 H113.51 Z M132.43,56.76 V66.22 H141.89 V56.76 H132.43 Z M151.35,56.76 V66.22 H160.81 V56.76 H151.35 Z M170.27,56.76 V66.22 H179.73 V56.76 H170.27 Z M189.19,56.76 V66.22 H198.65 V56.76 H189.19 Z M208.11,56.76 V66.22 H217.57 V56.76 H208.11 Z M227.03,56.76 V66.22 H236.49 V56.76 H227.03 Z M245.95,56.76 V66.22 H255.41 V56.76 H245.95 Z M264.86,56.76 V66.22 H274.32 V56.76 H264.86 Z M283.78,56.76 V66.22 H293.24 V56.76 H283.78 Z M293.24,56.76 V66.22 H302.70 V56.76 H293.24 Z M302.70,56.76 V66.22 H312.16 V56.76 H302.70 Z M312.16,56.76 V66.22 H321.62 V56.76 H312.16 Z M321.62,56.76 V66.22 H331.08 V56.76 H321.62 Z M331.08,56.76 V66.22 H340.54 V56.76 H331.08 Z M340.54,56.76 V66.22 H350 V56.76 H340.54 Z M75.68,66.22 V75.68 H85.14 V66.22 H75.68 Z M104.05,66.22 V75.68 H113.51 V66.22 H104.05 Z M113.51,66.22 V75.68 H122.97 V66.22 H113.51 Z M132.43,66.22 V75.68 H141.89 V66.22 H132.43 Z M141.89,66.22 V75.68 H151.35 V66.22 H141.89 Z M160.81,66.22 V75.68 H170.27 V66.22 H160.81 Z M170.27,66.22 V75.68 H179.73 V66.22 H170.27 Z M189.19,66.22 V75.68 H198.65 V66.22 H189.19 Z M198.65,66.22 V75.68 H208.11 V66.22 H198.65 Z M217.57,66.22 V75.68 H227.03 V66.22 H217.57 Z M236.49,66.22 V75.68 H245.95 V66.22 H236.49 Z M245.95,66.22 V75.68 H255.41 V66.22 H245.95 Z M264.86,66.22 V75.68 H274.32 V66.22 H264.86 Z M0,75.68 V85.14 H9.46 V75.68 H0 Z M9.46,75.68 V85.14 H18.92 V75.68 H9.46 Z M18.92,75.68 V85.14 H28.38 V75.68 H18.92 Z M28.38,75.68 V85.14 H37.84 V75.68 H28.38 Z M37.84,75.68 V85.14 H47.30 V75.68 H37.84 Z M56.76,75.68 V85.14 H66.22 V75.68 H56.76 Z M66.22,75.68 V85.14 H75.68 V75.68 H66.22 Z M94.59,75.68 V85.14 H104.05 V75.68 H94.59 Z M122.97,75.68 V85.14 H132.43 V75.68 H122.97 Z M132.43,75.68 V85.14 H141.89 V75.68 H132.43 Z M151.35,75.68 V85.14 H160.81 V75.68 H151.35 Z M160.81,75.68 V85.14 H170.27 V75.68 H160.81 Z M227.03,75.68 V85.14 H236.49 V75.68 H227.03 Z M245.95,75.68 V85.14 H255.41 V75.68 H245.95 Z M255.41,75.68 V85.14 H264.86 V75.68 H255.41 Z M264.86,75.68 V85.14 H274.32 V75.68 H264.86 Z M274.32,75.68 V85.14 H283.78 V75.68 H274.32 Z M283.78,75.68 V85.14 H293.24 V75.68 H283.78 Z M302.70,75.68 V85.14 H312.16 V75.68 H302.70 Z M321.62,75.68 V85.14 H331.08 V75.68 H321.62 Z M331.08,75.68 V85.14 H340.54 V75.68 H331.08 Z M18.92,85.14 V94.59 H28.38 V85.14 H18.92 Z M47.30,85.14 V94.59 H56.76 V85.14 H47.30 Z M66.22,85.14 V94.59 H75.68 V85.14 H66.22 Z M75.68,85.14 V94.59 H85.14 V85.14 H75.68 Z M85.14,85.14 V94.59 H94.59 V85.14 H85.14 Z M141.89,85.14 V94.59 H151.35 V85.14 H141.89 Z M151.35,85.14 V94.59 H160.81 V85.14 H151.35 Z M170.27,85.14 V94.59 H179.73 V85.14 H170.27 Z M179.73,85.14 V94.59 H189.19 V85.14 H179.73 Z M189.19,85.14 V94.59 H198.65 V85.14 H189.19 Z M198.65,85.14 V94.59 H208.11 V85.14 H198.65 Z M217.57,85.14 V94.59 H227.03 V85.14 H217.57 Z M227.03,85.14 V94.59 H236.49 V85.14 H227.03 Z M245.95,85.14 V94.59 H255.41 V85.14 H245.95 Z M302.70,85.14 V94.59 H312.16 V85.14 H302.70 Z M312.16,85.14 V94.59 H321.62 V85.14 H312.16 Z M321.62,85.14 V94.59 H331.08 V85.14 H321.62 Z M0,94.59 V104.05 H9.46 V94.59 H0 Z M37.84,94.59 V104.05 H47.30 V94.59 H37.84 Z M47.30,94.59 V104.05 H56.76 V94.59 H47.30 Z M56.76,94.59 V104.05 H66.22 V94.59 H56.76 Z M66.22,94.59 V104.05 H75.68 V94.59 H66.22 Z M75.68,94.59 V104.05 H85.14 V94.59 H75.68 Z M94.59,94.59 V104.05 H104.05 V94.59 H94.59 Z M104.05,94.59 V104.05 H113.51 V94.59 H104.05 Z M122.97,94.59 V104.05 H132.43 V94.59 H122.97 Z M151.35,94.59 V104.05 H160.81 V94.59 H151.35 Z M170.27,94.59 V104.05 H179.73 V94.59 H170.27 Z M189.19,94.59 V104.05 H198.65 V94.59 H189.19 Z M208.11,94.59 V104.05 H217.57 V94.59 H208.11 Z M217.57,94.59 V104.05 H227.03 V94.59 H217.57 Z M227.03,94.59 V104.05 H236.49 V94.59 H227.03 Z M264.86,94.59 V104.05 H274.32 V94.59 H264.86 Z M331.08,94.59 V104.05 H340.54 V94.59 H331.08 Z M18.92,104.05 V113.51 H28.38 V104.05 H18.92 Z M28.38,104.05 V113.51 H37.84 V104.05 H28.38 Z M37.84,104.05 V113.51 H47.30 V104.05 H37.84 Z M47.30,104.05 V113.51 H56.76 V104.05 H47.30 Z M66.22,104.05 V113.51 H75.68 V104.05 H66.22 Z M75.68,104.05 V113.51 H85.14 V104.05 H75.68 Z M104.05,104.05 V113.51 H113.51 V104.05 H104.05 Z M132.43,104.05 V113.51 H141.89 V104.05 H132.43 Z M151.35,104.05 V113.51 H160.81 V104.05 H151.35 Z M179.73,104.05 V113.51 H189.19 V104.05 H179.73 Z M198.65,104.05 V113.51 H208.11 V104.05 H198.65 Z M227.03,104.05 V113.51 H236.49 V104.05 H227.03 Z M236.49,104.05 V113.51 H245.95 V104.05 H236.49 Z M255.41,104.05 V113.51 H264.86 V104.05 H255.41 Z M274.32,104.05 V113.51 H283.78 V104.05 H274.32 Z M293.24,104.05 V113.51 H302.70 V104.05 H293.24 Z M312.16,104.05 V113.51 H321.62 V104.05 H312.16 Z M331.08,104.05 V113.51 H340.54 V104.05 H331.08 Z M18.92,113.51 V122.97 H28.38 V113.51 H18.92 Z M28.38,113.51 V122.97 H37.84 V113.51 H28.38 Z M37.84,113.51 V122.97 H47.30 V113.51 H37.84 Z M56.76,113.51 V122.97 H66.22 V113.51 H56.76 Z M122.97,113.51 V122.97 H132.43 V113.51 H122.97 Z M132.43,113.51 V122.97 H141.89 V113.51 H132.43 Z M151.35,113.51 V122.97 H160.81 V113.51 H151.35 Z M170.27,113.51 V122.97 H179.73 V113.51 H170.27 Z M179.73,113.51 V122.97 H189.19 V113.51 H179.73 Z M198.65,113.51 V122.97 H208.11 V113.51 H198.65 Z M208.11,113.51 V122.97 H217.57 V113.51 H208.11 Z M217.57,113.51 V122.97 H227.03 V113.51 H217.57 Z M236.49,113.51 V122.97 H245.95 V113.51 H236.49 Z M245.95,113.51 V122.97 H255.41 V113.51 H245.95 Z M255.41,113.51 V122.97 H264.86 V113.51 H255.41 Z M264.86,113.51 V122.97 H274.32 V113.51 H264.86 Z M283.78,113.51 V122.97 H293.24 V113.51 H283.78 Z M293.24,113.51 V122.97 H302.70 V113.51 H293.24 Z M340.54,113.51 V122.97 H350 V113.51 H340.54 Z M0,122.97 V132.43 H9.46 V122.97 H0 Z M9.46,122.97 V132.43 H18.92 V122.97 H9.46 Z M28.38,122.97 V132.43 H37.84 V122.97 H28.38 Z M37.84,122.97 V132.43 H47.30 V122.97 H37.84 Z M66.22,122.97 V132.43 H75.68 V122.97 H66.22 Z M85.14,122.97 V132.43 H94.59 V122.97 H85.14 Z M104.05,122.97 V132.43 H113.51 V122.97 H104.05 Z M113.51,122.97 V132.43 H122.97 V122.97 H113.51 Z M132.43,122.97 V132.43 H141.89 V122.97 H132.43 Z M141.89,122.97 V132.43 H151.35 V122.97 H141.89 Z M151.35,122.97 V132.43 H160.81 V122.97 H151.35 Z M160.81,122.97 V132.43 H170.27 V122.97 H160.81 Z M170.27,122.97 V132.43 H179.73 V122.97 H170.27 Z M189.19,122.97 V132.43 H198.65 V122.97 H189.19 Z M198.65,122.97 V132.43 H208.11 V122.97 H198.65 Z M217.57,122.97 V132.43 H227.03 V122.97 H217.57 Z M236.49,122.97 V132.43 H245.95 V122.97 H236.49 Z M255.41,122.97 V132.43 H264.86 V122.97 H255.41 Z M274.32,122.97 V132.43 H283.78 V122.97 H274.32 Z M302.70,122.97 V132.43 H312.16 V122.97 H302.70 Z M312.16,122.97 V132.43 H321.62 V122.97 H312.16 Z M331.08,122.97 V132.43 H340.54 V122.97 H331.08 Z M340.54,122.97 V132.43 H350 V122.97 H340.54 Z M0,132.43 V141.89 H9.46 V132.43 H0 Z M37.84,132.43 V141.89 H47.30 V132.43 H37.84 Z M56.76,132.43 V141.89 H66.22 V132.43 H56.76 Z M104.05,132.43 V141.89 H113.51 V132.43 H104.05 Z M132.43,132.43 V141.89 H141.89 V132.43 H132.43 Z M189.19,132.43 V141.89 H198.65 V132.43 H189.19 Z M217.57,132.43 V141.89 H227.03 V132.43 H217.57 Z M227.03,132.43 V141.89 H236.49 V132.43 H227.03 Z M245.95,132.43 V141.89 H255.41 V132.43 H245.95 Z M255.41,132.43 V141.89 H264.86 V132.43 H255.41 Z M274.32,132.43 V141.89 H283.78 V132.43 H274.32 Z M283.78,132.43 V141.89 H293.24 V132.43 H283.78 Z M312.16,132.43 V141.89 H321.62 V132.43 H312.16 Z M0,141.89 V151.35 H9.46 V141.89 H0 Z M9.46,141.89 V151.35 H18.92 V141.89 H9.46 Z M37.84,141.89 V151.35 H47.30 V141.89 H37.84 Z M47.30,141.89 V151.35 H56.76 V141.89 H47.30 Z M66.22,141.89 V151.35 H75.68 V141.89 H66.22 Z M75.68,141.89 V151.35 H85.14 V141.89 H75.68 Z M94.59,141.89 V151.35 H104.05 V141.89 H94.59 Z M113.51,141.89 V151.35 H122.97 V141.89 H113.51 Z M122.97,141.89 V151.35 H132.43 V141.89 H122.97 Z M151.35,141.89 V151.35 H160.81 V141.89 H151.35 Z M179.73,141.89 V151.35 H189.19 V141.89 H179.73 Z M189.19,141.89 V151.35 H198.65 V141.89 H189.19 Z M198.65,141.89 V151.35 H208.11 V141.89 H198.65 Z M208.11,141.89 V151.35 H217.57 V141.89 H208.11 Z M217.57,141.89 V151.35 H227.03 V141.89 H217.57 Z M245.95,141.89 V151.35 H255.41 V141.89 H245.95 Z M255.41,141.89 V151.35 H264.86 V141.89 H255.41 Z M274.32,141.89 V151.35 H283.78 V141.89 H274.32 Z M302.70,141.89 V151.35 H312.16 V141.89 H302.70 Z M331.08,141.89 V151.35 H340.54 V141.89 H331.08 Z M340.54,141.89 V151.35 H350 V141.89 H340.54 Z M0,151.35 V160.81 H9.46 V151.35 H0 Z M9.46,151.35 V160.81 H18.92 V151.35 H9.46 Z M28.38,151.35 V160.81 H37.84 V151.35 H28.38 Z M47.30,151.35 V160.81 H56.76 V151.35 H47.30 Z M56.76,151.35 V160.81 H66.22 V151.35 H56.76 Z M75.68,151.35 V160.81 H85.14 V151.35 H75.68 Z M85.14,151.35 V160.81 H94.59 V151.35 H85.14 Z M94.59,151.35 V160.81 H104.05 V151.35 H94.59 Z M104.05,151.35 V160.81 H113.51 V151.35 H104.05 Z M122.97,151.35 V160.81 H132.43 V151.35 H122.97 Z M132.43,151.35 V160.81 H141.89 V151.35 H132.43 Z M170.27,151.35 V160.81 H179.73 V151.35 H170.27 Z M179.73,151.35 V160.81 H189.19 V151.35 H179.73 Z M189.19,151.35 V160.81 H198.65 V151.35 H189.19 Z M208.11,151.35 V160.81 H217.57 V151.35 H208.11 Z M236.49,151.35 V160.81 H245.95 V151.35 H236.49 Z M255.41,151.35 V160.81 H264.86 V151.35 H255.41 Z M274.32,151.35 V160.81 H283.78 V151.35 H274.32 Z M340.54,151.35 V160.81 H350 V151.35 H340.54 Z M0,160.81 V170.27 H9.46 V160.81 H0 Z M9.46,160.81 V170.27 H18.92 V160.81 H9.46 Z M18.92,160.81 V170.27 H28.38 V160.81 H18.92 Z M66.22,160.81 V170.27 H75.68 V160.81 H66.22 Z M94.59,160.81 V170.27 H104.05 V160.81 H94.59 Z M141.89,160.81 V170.27 H151.35 V160.81 H141.89 Z M160.81,160.81 V170.27 H170.27 V160.81 H160.81 Z M170.27,160.81 V170.27 H179.73 V160.81 H170.27 Z M179.73,160.81 V170.27 H189.19 V160.81 H179.73 Z M189.19,160.81 V170.27 H198.65 V160.81 H189.19 Z M208.11,160.81 V170.27 H217.57 V160.81 H208.11 Z M227.03,160.81 V170.27 H236.49 V160.81 H227.03 Z M236.49,160.81 V170.27 H245.95 V160.81 H236.49 Z M264.86,160.81 V170.27 H274.32 V160.81 H264.86 Z M274.32,160.81 V170.27 H283.78 V160.81 H274.32 Z M283.78,160.81 V170.27 H293.24 V160.81 H283.78 Z M302.70,160.81 V170.27 H312.16 V160.81 H302.70 Z M331.08,160.81 V170.27 H340.54 V160.81 H331.08 Z M9.46,170.27 V179.73 H18.92 V170.27 H9.46 Z M18.92,170.27 V179.73 H28.38 V170.27 H18.92 Z M28.38,170.27 V179.73 H37.84 V170.27 H28.38 Z M56.76,170.27 V179.73 H66.22 V170.27 H56.76 Z M75.68,170.27 V179.73 H85.14 V170.27 H75.68 Z M104.05,170.27 V179.73 H113.51 V170.27 H104.05 Z M113.51,170.27 V179.73 H122.97 V170.27 H113.51 Z M132.43,170.27 V179.73 H141.89 V170.27 H132.43 Z M141.89,170.27 V179.73 H151.35 V170.27 H141.89 Z M151.35,170.27 V179.73 H160.81 V170.27 H151.35 Z M160.81,170.27 V179.73 H170.27 V170.27 H160.81 Z M189.19,170.27 V179.73 H198.65 V170.27 H189.19 Z M274.32,170.27 V179.73 H283.78 V170.27 H274.32 Z M293.24,170.27 V179.73 H302.70 V170.27 H293.24 Z M302.70,170.27 V179.73 H312.16 V170.27 H302.70 Z M312.16,170.27 V179.73 H321.62 V170.27 H312.16 Z M321.62,170.27 V179.73 H331.08 V170.27 H321.62 Z M331.08,170.27 V179.73 H340.54 V170.27 H331.08 Z M18.92,179.73 V189.19 H28.38 V179.73 H18.92 Z M28.38,179.73 V189.19 H37.84 V179.73 H28.38 Z M37.84,179.73 V189.19 H47.30 V179.73 H37.84 Z M47.30,179.73 V189.19 H56.76 V179.73 H47.30 Z M66.22,179.73 V189.19 H75.68 V179.73 H66.22 Z M113.51,179.73 V189.19 H122.97 V179.73 H113.51 Z M122.97,179.73 V189.19 H132.43 V179.73 H122.97 Z M132.43,179.73 V189.19 H141.89 V179.73 H132.43 Z M151.35,179.73 V189.19 H160.81 V179.73 H151.35 Z M170.27,179.73 V189.19 H179.73 V179.73 H170.27 Z M179.73,179.73 V189.19 H189.19 V179.73 H179.73 Z M189.19,179.73 V189.19 H198.65 V179.73 H189.19 Z M198.65,179.73 V189.19 H208.11 V179.73 H198.65 Z M208.11,179.73 V189.19 H217.57 V179.73 H208.11 Z M236.49,179.73 V189.19 H245.95 V179.73 H236.49 Z M264.86,179.73 V189.19 H274.32 V179.73 H264.86 Z M283.78,179.73 V189.19 H293.24 V179.73 H283.78 Z M293.24,179.73 V189.19 H302.70 V179.73 H293.24 Z M302.70,179.73 V189.19 H312.16 V179.73 H302.70 Z M312.16,179.73 V189.19 H321.62 V179.73 H312.16 Z M331.08,179.73 V189.19 H340.54 V179.73 H331.08 Z M0,189.19 V198.65 H9.46 V189.19 H0 Z M9.46,189.19 V198.65 H18.92 V189.19 H9.46 Z M28.38,189.19 V198.65 H37.84 V189.19 H28.38 Z M56.76,189.19 V198.65 H66.22 V189.19 H56.76 Z M66.22,189.19 V198.65 H75.68 V189.19 H66.22 Z M85.14,189.19 V198.65 H94.59 V189.19 H85.14 Z M104.05,189.19 V198.65 H113.51 V189.19 H104.05 Z M113.51,189.19 V198.65 H122.97 V189.19 H113.51 Z M122.97,189.19 V198.65 H132.43 V189.19 H122.97 Z M151.35,189.19 V198.65 H160.81 V189.19 H151.35 Z M160.81,189.19 V198.65 H170.27 V189.19 H160.81 Z M170.27,189.19 V198.65 H179.73 V189.19 H170.27 Z M179.73,189.19 V198.65 H189.19 V189.19 H179.73 Z M217.57,189.19 V198.65 H227.03 V189.19 H217.57 Z M236.49,189.19 V198.65 H245.95 V189.19 H236.49 Z M245.95,189.19 V198.65 H255.41 V189.19 H245.95 Z M255.41,189.19 V198.65 H264.86 V189.19 H255.41 Z M264.86,189.19 V198.65 H274.32 V189.19 H264.86 Z M283.78,189.19 V198.65 H293.24 V189.19 H283.78 Z M340.54,189.19 V198.65 H350 V189.19 H340.54 Z M0,198.65 V208.11 H9.46 V198.65 H0 Z M9.46,198.65 V208.11 H18.92 V198.65 H9.46 Z M47.30,198.65 V208.11 H56.76 V198.65 H47.30 Z M66.22,198.65 V208.11 H75.68 V198.65 H66.22 Z M75.68,198.65 V208.11 H85.14 V198.65 H75.68 Z M104.05,198.65 V208.11 H113.51 V198.65 H104.05 Z M122.97,198.65 V208.11 H132.43 V198.65 H122.97 Z M141.89,198.65 V208.11 H151.35 V198.65 H141.89 Z M160.81,198.65 V208.11 H170.27 V198.65 H160.81 Z M179.73,198.65 V208.11 H189.19 V198.65 H179.73 Z M189.19,198.65 V208.11 H198.65 V198.65 H189.19 Z M198.65,198.65 V208.11 H208.11 V198.65 H198.65 Z M217.57,198.65 V208.11 H227.03 V198.65 H217.57 Z M227.03,198.65 V208.11 H236.49 V198.65 H227.03 Z M236.49,198.65 V208.11 H245.95 V198.65 H236.49 Z M245.95,198.65 V208.11 H255.41 V198.65 H245.95 Z M255.41,198.65 V208.11 H264.86 V198.65 H255.41 Z M264.86,198.65 V208.11 H274.32 V198.65 H264.86 Z M283.78,198.65 V208.11 H293.24 V198.65 H283.78 Z M312.16,198.65 V208.11 H321.62 V198.65 H312.16 Z M321.62,198.65 V208.11 H331.08 V198.65 H321.62 Z M331.08,198.65 V208.11 H340.54 V198.65 H331.08 Z M340.54,198.65 V208.11 H350 V198.65 H340.54 Z M0,208.11 V217.57 H9.46 V208.11 H0 Z M18.92,208.11 V217.57 H28.38 V208.11 H18.92 Z M28.38,208.11 V217.57 H37.84 V208.11 H28.38 Z M56.76,208.11 V217.57 H66.22 V208.11 H56.76 Z M104.05,208.11 V217.57 H113.51 V208.11 H104.05 Z M132.43,208.11 V217.57 H141.89 V208.11 H132.43 Z M141.89,208.11 V217.57 H151.35 V208.11 H141.89 Z M151.35,208.11 V217.57 H160.81 V208.11 H151.35 Z M160.81,208.11 V217.57 H170.27 V208.11 H160.81 Z M179.73,208.11 V217.57 H189.19 V208.11 H179.73 Z M208.11,208.11 V217.57 H217.57 V208.11 H208.11 Z M217.57,208.11 V217.57 H227.03 V208.11 H217.57 Z M236.49,208.11 V217.57 H245.95 V208.11 H236.49 Z M245.95,208.11 V217.57 H255.41 V208.11 H245.95 Z M255.41,208.11 V217.57 H264.86 V208.11 H255.41 Z M274.32,208.11 V217.57 H283.78 V208.11 H274.32 Z M321.62,208.11 V217.57 H331.08 V208.11 H321.62 Z M18.92,217.57 V227.03 H28.38 V217.57 H18.92 Z M37.84,217.57 V227.03 H47.30 V217.57 H37.84 Z M47.30,217.57 V227.03 H56.76 V217.57 H47.30 Z M85.14,217.57 V227.03 H94.59 V217.57 H85.14 Z M104.05,217.57 V227.03 H113.51 V217.57 H104.05 Z M141.89,217.57 V227.03 H151.35 V217.57 H141.89 Z M160.81,217.57 V227.03 H170.27 V217.57 H160.81 Z M179.73,217.57 V227.03 H189.19 V217.57 H179.73 Z M255.41,217.57 V227.03 H264.86 V217.57 H255.41 Z M264.86,217.57 V227.03 H274.32 V217.57 H264.86 Z M293.24,217.57 V227.03 H302.70 V217.57 H293.24 Z M302.70,217.57 V227.03 H312.16 V217.57 H302.70 Z M312.16,217.57 V227.03 H321.62 V217.57 H312.16 Z M321.62,217.57 V227.03 H331.08 V217.57 H321.62 Z M340.54,217.57 V227.03 H350 V217.57 H340.54 Z M37.84,227.03 V236.49 H47.30 V227.03 H37.84 Z M56.76,227.03 V236.49 H66.22 V227.03 H56.76 Z M66.22,227.03 V236.49 H75.68 V227.03 H66.22 Z M85.14,227.03 V236.49 H94.59 V227.03 H85.14 Z M104.05,227.03 V236.49 H113.51 V227.03 H104.05 Z M113.51,227.03 V236.49 H122.97 V227.03 H113.51 Z M122.97,227.03 V236.49 H132.43 V227.03 H122.97 Z M132.43,227.03 V236.49 H141.89 V227.03 H132.43 Z M141.89,227.03 V236.49 H151.35 V227.03 H141.89 Z M208.11,227.03 V236.49 H217.57 V227.03 H208.11 Z M227.03,227.03 V236.49 H236.49 V227.03 H227.03 Z M236.49,227.03 V236.49 H245.95 V227.03 H236.49 Z M245.95,227.03 V236.49 H255.41 V227.03 H245.95 Z M255.41,227.03 V236.49 H264.86 V227.03 H255.41 Z M274.32,227.03 V236.49 H283.78 V227.03 H274.32 Z M302.70,227.03 V236.49 H312.16 V227.03 H302.70 Z M312.16,227.03 V236.49 H321.62 V227.03 H312.16 Z M321.62,227.03 V236.49 H331.08 V227.03 H321.62 Z M331.08,227.03 V236.49 H340.54 V227.03 H331.08 Z M0,236.49 V245.95 H9.46 V236.49 H0 Z M9.46,236.49 V245.95 H18.92 V236.49 H9.46 Z M66.22,236.49 V245.95 H75.68 V236.49 H66.22 Z M75.68,236.49 V245.95 H85.14 V236.49 H75.68 Z M94.59,236.49 V245.95 H104.05 V236.49 H94.59 Z M104.05,236.49 V245.95 H113.51 V236.49 H104.05 Z M113.51,236.49 V245.95 H122.97 V236.49 H113.51 Z M122.97,236.49 V245.95 H132.43 V236.49 H122.97 Z M141.89,236.49 V245.95 H151.35 V236.49 H141.89 Z M151.35,236.49 V245.95 H160.81 V236.49 H151.35 Z M160.81,236.49 V245.95 H170.27 V236.49 H160.81 Z M170.27,236.49 V245.95 H179.73 V236.49 H170.27 Z M179.73,236.49 V245.95 H189.19 V236.49 H179.73 Z M189.19,236.49 V245.95 H198.65 V236.49 H189.19 Z M198.65,236.49 V245.95 H208.11 V236.49 H198.65 Z M217.57,236.49 V245.95 H227.03 V236.49 H217.57 Z M236.49,236.49 V245.95 H245.95 V236.49 H236.49 Z M245.95,236.49 V245.95 H255.41 V236.49 H245.95 Z M255.41,236.49 V245.95 H264.86 V236.49 H255.41 Z M264.86,236.49 V245.95 H274.32 V236.49 H264.86 Z M274.32,236.49 V245.95 H283.78 V236.49 H274.32 Z M293.24,236.49 V245.95 H302.70 V236.49 H293.24 Z M302.70,236.49 V245.95 H312.16 V236.49 H302.70 Z M312.16,236.49 V245.95 H321.62 V236.49 H312.16 Z M331.08,236.49 V245.95 H340.54 V236.49 H331.08 Z M340.54,236.49 V245.95 H350 V236.49 H340.54 Z M9.46,245.95 V255.41 H18.92 V245.95 H9.46 Z M56.76,245.95 V255.41 H66.22 V245.95 H56.76 Z M66.22,245.95 V255.41 H75.68 V245.95 H66.22 Z M104.05,245.95 V255.41 H113.51 V245.95 H104.05 Z M141.89,245.95 V255.41 H151.35 V245.95 H141.89 Z M170.27,245.95 V255.41 H179.73 V245.95 H170.27 Z M189.19,245.95 V255.41 H198.65 V245.95 H189.19 Z M198.65,245.95 V255.41 H208.11 V245.95 H198.65 Z M217.57,245.95 V255.41 H227.03 V245.95 H217.57 Z M227.03,245.95 V255.41 H236.49 V245.95 H227.03 Z M255.41,245.95 V255.41 H264.86 V245.95 H255.41 Z M293.24,245.95 V255.41 H302.70 V245.95 H293.24 Z M331.08,245.95 V255.41 H340.54 V245.95 H331.08 Z M340.54,245.95 V255.41 H350 V245.95 H340.54 Z M0,255.41 V264.86 H9.46 V255.41 H0 Z M9.46,255.41 V264.86 H18.92 V255.41 H9.46 Z M18.92,255.41 V264.86 H28.38 V255.41 H18.92 Z M37.84,255.41 V264.86 H47.30 V255.41 H37.84 Z M47.30,255.41 V264.86 H56.76 V255.41 H47.30 Z M75.68,255.41 V264.86 H85.14 V255.41 H75.68 Z M141.89,255.41 V264.86 H151.35 V255.41 H141.89 Z M151.35,255.41 V264.86 H160.81 V255.41 H151.35 Z M179.73,255.41 V264.86 H189.19 V255.41 H179.73 Z M227.03,255.41 V264.86 H236.49 V255.41 H227.03 Z M255.41,255.41 V264.86 H264.86 V255.41 H255.41 Z M274.32,255.41 V264.86 H283.78 V255.41 H274.32 Z M312.16,255.41 V264.86 H321.62 V255.41 H312.16 Z M321.62,255.41 V264.86 H331.08 V255.41 H321.62 Z M331.08,255.41 V264.86 H340.54 V255.41 H331.08 Z M340.54,255.41 V264.86 H350 V255.41 H340.54 Z M37.84,264.86 V274.32 H47.30 V264.86 H37.84 Z M47.30,264.86 V274.32 H56.76 V264.86 H47.30 Z M56.76,264.86 V274.32 H66.22 V264.86 H56.76 Z M66.22,264.86 V274.32 H75.68 V264.86 H66.22 Z M85.14,264.86 V274.32 H94.59 V264.86 H85.14 Z M94.59,264.86 V274.32 H104.05 V264.86 H94.59 Z M113.51,264.86 V274.32 H122.97 V264.86 H113.51 Z M141.89,264.86 V274.32 H151.35 V264.86 H141.89 Z M151.35,264.86 V274.32 H160.81 V264.86 H151.35 Z M160.81,264.86 V274.32 H170.27 V264.86 H160.81 Z M189.19,264.86 V274.32 H198.65 V264.86 H189.19 Z M208.11,264.86 V274.32 H217.57 V264.86 H208.11 Z M236.49,264.86 V274.32 H245.95 V264.86 H236.49 Z M255.41,264.86 V274.32 H264.86 V264.86 H255.41 Z M264.86,264.86 V274.32 H274.32 V264.86 H264.86 Z M274.32,264.86 V274.32 H283.78 V264.86 H274.32 Z M283.78,264.86 V274.32 H293.24 V264.86 H283.78 Z M293.24,264.86 V274.32 H302.70 V264.86 H293.24 Z M302.70,264.86 V274.32 H312.16 V264.86 H302.70 Z M321.62,264.86 V274.32 H331.08 V264.86 H321.62 Z M331.08,264.86 V274.32 H340.54 V264.86 H331.08 Z M340.54,264.86 V274.32 H350 V264.86 H340.54 Z M85.14,274.32 V283.78 H94.59 V274.32 H85.14 Z M104.05,274.32 V283.78 H113.51 V274.32 H104.05 Z M113.51,274.32 V283.78 H122.97 V274.32 H113.51 Z M132.43,274.32 V283.78 H141.89 V274.32 H132.43 Z M151.35,274.32 V283.78 H160.81 V274.32 H151.35 Z M160.81,274.32 V283.78 H170.27 V274.32 H160.81 Z M170.27,274.32 V283.78 H179.73 V274.32 H170.27 Z M179.73,274.32 V283.78 H189.19 V274.32 H179.73 Z M189.19,274.32 V283.78 H198.65 V274.32 H189.19 Z M208.11,274.32 V283.78 H217.57 V274.32 H208.11 Z M227.03,274.32 V283.78 H236.49 V274.32 H227.03 Z M264.86,274.32 V283.78 H274.32 V274.32 H264.86 Z M302.70,274.32 V283.78 H312.16 V274.32 H302.70 Z M312.16,274.32 V283.78 H321.62 V274.32 H312.16 Z M321.62,274.32 V283.78 H331.08 V274.32 H321.62 Z M340.54,274.32 V283.78 H350 V274.32 H340.54 Z M0,283.78 V293.24 H9.46 V283.78 H0 Z M9.46,283.78 V293.24 H18.92 V283.78 H9.46 Z M18.92,283.78 V293.24 H28.38 V283.78 H18.92 Z M28.38,283.78 V293.24 H37.84 V283.78 H28.38 Z M37.84,283.78 V293.24 H47.30 V283.78 H37.84 Z M47.30,283.78 V293.24 H56.76 V283.78 H47.30 Z M56.76,283.78 V293.24 H66.22 V283.78 H56.76 Z M75.68,283.78 V293.24 H85.14 V283.78 H75.68 Z M85.14,283.78 V293.24 H94.59 V283.78 H85.14 Z M94.59,283.78 V293.24 H104.05 V283.78 H94.59 Z M113.51,283.78 V293.24 H122.97 V283.78 H113.51 Z M122.97,283.78 V293.24 H132.43 V283.78 H122.97 Z M141.89,283.78 V293.24 H151.35 V283.78 H141.89 Z M151.35,283.78 V293.24 H160.81 V283.78 H151.35 Z M170.27,283.78 V293.24 H179.73 V283.78 H170.27 Z M189.19,283.78 V293.24 H198.65 V283.78 H189.19 Z M217.57,283.78 V293.24 H227.03 V283.78 H217.57 Z M227.03,283.78 V293.24 H236.49 V283.78 H227.03 Z M236.49,283.78 V293.24 H245.95 V283.78 H236.49 Z M245.95,283.78 V293.24 H255.41 V283.78 H245.95 Z M255.41,283.78 V293.24 H264.86 V283.78 H255.41 Z M264.86,283.78 V293.24 H274.32 V283.78 H264.86 Z M283.78,283.78 V293.24 H293.24 V283.78 H283.78 Z M302.70,283.78 V293.24 H312.16 V283.78 H302.70 Z M331.08,283.78 V293.24 H340.54 V283.78 H331.08 Z M340.54,283.78 V293.24 H350 V283.78 H340.54 Z M0,293.24 V302.70 H9.46 V293.24 H0 Z M56.76,293.24 V302.70 H66.22 V293.24 H56.76 Z M94.59,293.24 V302.70 H104.05 V293.24 H94.59 Z M104.05,293.24 V302.70 H113.51 V293.24 H104.05 Z M132.43,293.24 V302.70 H141.89 V293.24 H132.43 Z M160.81,293.24 V302.70 H170.27 V293.24 H160.81 Z M170.27,293.24 V302.70 H179.73 V293.24 H170.27 Z M189.19,293.24 V302.70 H198.65 V293.24 H189.19 Z M245.95,293.24 V302.70 H255.41 V293.24 H245.95 Z M264.86,293.24 V302.70 H274.32 V293.24 H264.86 Z M302.70,293.24 V302.70 H312.16 V293.24 H302.70 Z M312.16,293.24 V302.70 H321.62 V293.24 H312.16 Z M0,302.70 V312.16 H9.46 V302.70 H0 Z M18.92,302.70 V312.16 H28.38 V302.70 H18.92 Z M28.38,302.70 V312.16 H37.84 V302.70 H28.38 Z M37.84,302.70 V312.16 H47.30 V302.70 H37.84 Z M56.76,302.70 V312.16 H66.22 V302.70 H56.76 Z M75.68,302.70 V312.16 H85.14 V302.70 H75.68 Z M113.51,302.70 V312.16 H122.97 V302.70 H113.51 Z M141.89,302.70 V312.16 H151.35 V302.70 H141.89 Z M170.27,302.70 V312.16 H179.73 V302.70 H170.27 Z M179.73,302.70 V312.16 H189.19 V302.70 H179.73 Z M208.11,302.70 V312.16 H217.57 V302.70 H208.11 Z M227.03,302.70 V312.16 H236.49 V302.70 H227.03 Z M245.95,302.70 V312.16 H255.41 V302.70 H245.95 Z M255.41,302.70 V312.16 H264.86 V302.70 H255.41 Z M264.86,302.70 V312.16 H274.32 V302.70 H264.86 Z M274.32,302.70 V312.16 H283.78 V302.70 H274.32 Z M283.78,302.70 V312.16 H293.24 V302.70 H283.78 Z M293.24,302.70 V312.16 H302.70 V302.70 H293.24 Z M302.70,302.70 V312.16 H312.16 V302.70 H302.70 Z M312.16,302.70 V312.16 H321.62 V302.70 H312.16 Z M321.62,302.70 V312.16 H331.08 V302.70 H321.62 Z M0,312.16 V321.62 H9.46 V312.16 H0 Z M18.92,312.16 V321.62 H28.38 V312.16 H18.92 Z M28.38,312.16 V321.62 H37.84 V312.16 H28.38 Z M37.84,312.16 V321.62 H47.30 V312.16 H37.84 Z M56.76,312.16 V321.62 H66.22 V312.16 H56.76 Z M75.68,312.16 V321.62 H85.14 V312.16 H75.68 Z M85.14,312.16 V321.62 H94.59 V312.16 H85.14 Z M94.59,312.16 V321.62 H104.05 V312.16 H94.59 Z M122.97,312.16 V321.62 H132.43 V312.16 H122.97 Z M151.35,312.16 V321.62 H160.81 V312.16 H151.35 Z M160.81,312.16 V321.62 H170.27 V312.16 H160.81 Z M170.27,312.16 V321.62 H179.73 V312.16 H170.27 Z M236.49,312.16 V321.62 H245.95 V312.16 H236.49 Z M255.41,312.16 V321.62 H264.86 V312.16 H255.41 Z M302.70,312.16 V321.62 H312.16 V312.16 H302.70 Z M321.62,312.16 V321.62 H331.08 V312.16 H321.62 Z M0,321.62 V331.08 H9.46 V321.62 H0 Z M18.92,321.62 V331.08 H28.38 V321.62 H18.92 Z M28.38,321.62 V331.08 H37.84 V321.62 H28.38 Z M37.84,321.62 V331.08 H47.30 V321.62 H37.84 Z M56.76,321.62 V331.08 H66.22 V321.62 H56.76 Z M75.68,321.62 V331.08 H85.14 V321.62 H75.68 Z M122.97,321.62 V331.08 H132.43 V321.62 H122.97 Z M132.43,321.62 V331.08 H141.89 V321.62 H132.43 Z M198.65,321.62 V331.08 H208.11 V321.62 H198.65 Z M236.49,321.62 V331.08 H245.95 V321.62 H236.49 Z M245.95,321.62 V331.08 H255.41 V321.62 H245.95 Z M283.78,321.62 V331.08 H293.24 V321.62 H283.78 Z M312.16,321.62 V331.08 H321.62 V321.62 H312.16 Z M0,331.08 V340.54 H9.46 V331.08 H0 Z M56.76,331.08 V340.54 H66.22 V331.08 H56.76 Z M75.68,331.08 V340.54 H85.14 V331.08 H75.68 Z M85.14,331.08 V340.54 H94.59 V331.08 H85.14 Z M94.59,331.08 V340.54 H104.05 V331.08 H94.59 Z M122.97,331.08 V340.54 H132.43 V331.08 H122.97 Z M132.43,331.08 V340.54 H141.89 V331.08 H132.43 Z M141.89,331.08 V340.54 H151.35 V331.08 H141.89 Z M151.35,331.08 V340.54 H160.81 V331.08 H151.35 Z M160.81,331.08 V340.54 H170.27 V331.08 H160.81 Z M170.27,331.08 V340.54 H179.73 V331.08 H170.27 Z M179.73,331.08 V340.54 H189.19 V331.08 H179.73 Z M189.19,331.08 V340.54 H198.65 V331.08 H189.19 Z M208.11,331.08 V340.54 H217.57 V331.08 H208.11 Z M236.49,331.08 V340.54 H245.95 V331.08 H236.49 Z M245.95,331.08 V340.54 H255.41 V331.08 H245.95 Z M274.32,331.08 V340.54 H283.78 V331.08 H274.32 Z M293.24,331.08 V340.54 H302.70 V331.08 H293.24 Z M331.08,331.08 V340.54 H340.54 V331.08 H331.08 Z M340.54,331.08 V340.54 H350 V331.08 H340.54 Z M0,340.54 V350 H9.46 V340.54 H0 Z M9.46,340.54 V350 H18.92 V340.54 H9.46 Z M18.92,340.54 V350 H28.38 V340.54 H18.92 Z M28.38,340.54 V350 H37.84 V340.54 H28.38 Z M37.84,340.54 V350 H47.30 V340.54 H37.84 Z M47.30,340.54 V350 H56.76 V340.54 H47.30 Z M56.76,340.54 V350 H66.22 V340.54 H56.76 Z M75.68,340.54 V350 H85.14 V340.54 H75.68 Z M85.14,340.54 V350 H94.59 V340.54 H85.14 Z M94.59,340.54 V350 H104.05 V340.54 H94.59 Z M122.97,340.54 V350 H132.43 V340.54 H122.97 Z M132.43,340.54 V350 H141.89 V340.54 H132.43 Z M141.89,340.54 V350 H151.35 V340.54 H141.89 Z M160.81,340.54 V350 H170.27 V340.54 H160.81 Z M170.27,340.54 V350 H179.73 V340.54 H170.27 Z M179.73,340.54 V350 H189.19 V340.54 H179.73 Z M189.19,340.54 V350 H198.65 V340.54 H189.19 Z M198.65,340.54 V350 H208.11 V340.54 H198.65 Z M208.11,340.54 V350 H217.57 V340.54 H208.11 Z M227.03,340.54 V350 H236.49 V340.54 H227.03 Z M236.49,340.54 V350 H245.95 V340.54 H236.49 Z M245.95,340.54 V350 H255.41 V340.54 H245.95 Z M255.41,340.54 V350 H264.86 V340.54 H255.41 Z M264.86,340.54 V350 H274.32 V340.54 H264.86 Z M274.32,340.54 V350 H283.78 V340.54 H274.32 Z M283.78,340.54 V350 H293.24 V340.54 H283.78 Z M293.24,340.54 V350 H302.70 V340.54 H293.24 Z M302.70,340.54 V350 H312.16 V340.54 H302.70 Z M312.16,340.54 V350 H321.62 V340.54 H312.16 Z M321.62,340.54 V350 H331.08 V340.54 H321.62 Z M340.54,340.54 V350 H350 V340.54 H340.54 Z "></path></svg><circle fill="#fff" stroke-width="6px" stroke="#000" cx="175" cy="175" r="65.75"></circle><svg x="117.25" y="117.25" width="115.5" height="115.5" viewBox="0 0 24 24" fill="#000"><path d="M12 0c-6.626 0-12 5.373-12 12 0 5.302 3.438 9.8 8.207 11.387.599.111.793-.261.793-.577v-2.234c-3.338.726-4.033-1.416-4.033-1.416-.546-1.387-1.333-1.756-1.333-1.756-1.089-.745.083-.729.083-.729 1.205.084 1.839 1.237 1.839 1.237 1.07 1.834 2.807 1.304 3.492.997.107-.775.418-1.305.762-1.604-2.665-.305-5.467-1.334-5.467-5.931 0-1.311.469-2.381 1.236-3.221-.124-.303-.535-1.524.117-3.176 0 0 1.008-.322 3.301 1.23.957-.266 1.983-.399 3.003-.404 1.02.005 2.047.138 3.006.404 2.291-1.552 3.297-1.23 3.297-1.23.653 1.653.242 2.874.118 3.176.77.84 1.235 1.911 1.235 3.221 0 4.609-2.807 5.624-5.479 5.921.43.372.823 1.102.823 2.222v3.293c0 .319.192.694.801.576 4.765-1.589 8.199-6.086 8.199-11.386 0-6.627-5.373-12-12-12z"></path></svg></svg>